PathFileType	4	(X/Y/Z)	 s11c0402.trc
DataRate	CameraRate	NumFrames	NumMarkers	Units	OrigDataRate	OrigDataStartFrame	OrigNumFrames
200	200	5	48	mm	200	1501	2000
Frame#	Time	racr			lacr			c7			jug			rlel			rdr			llel			ldr			s2			lic			ric			lasi			rasi			rpsi			lpsi			rgt			lgt			rth1			rth2			rth3			rth4			rlfc			rmfc			rsh1			rsh2			rsh3			rsh4			rlmal			rcal			rtoe			rmt5			lth1			lth2			lth4			lth3			llfc			lmfc			llmal			lcal			lmt5			lsh1			lsh2			lsh3			lsh4			ltoe			SBIKE			LBIKE			RBIKE			
		X1	Y1	Z1	X2	Y2	Z2	X3	Y3	Z3	X4	Y4	Z4	X5	Y5	Z5	X6	Y6	Z6	X7	Y7	Z7	X8	Y8	Z8	X9	Y9	Z9	X10	Y10	Z10	X11	Y11	Z11	X12	Y12	Z12	X13	Y13	Z13	X14	Y14	Z14	X15	Y15	Z15	X16	Y16	Z16	X17	Y17	Z17	X18	Y18	Z18	X19	Y19	Z19	X20	Y20	Z20	X21	Y21	Z21	X22	Y22	Z22	X23	Y23	Z23	X24	Y24	Z24	X25	Y25	Z25	X26	Y26	Z26	X27	Y27	Z27	X28	Y28	Z28	X29	Y29	Z29	X30	Y30	Z30	X31	Y31	Z31	X32	Y32	Z32	X33	Y33	Z33	X34	Y34	Z34	X35	Y35	Z35	X36	Y36	Z36	X37	Y37	Z37	X38	Y38	Z38	X39	Y39	Z39	X40	Y40	Z40	X41	Y41	Z41	X42	Y42	Z42	X43	Y43	Z43	X44	Y44	Z44	X45	Y45	Z45	X46	Y46	Z46	X47	Y47	Z47	X48	Y48	Z48	
1501	7.5050	838.276853	1338.717132	-83.426360	792.745982	1354.687957	-432.159464	789.002718	1449.948921	-250.593248	783.439099	1265.190139	-266.578972	632.532637	1162.693370	51.504806	776.790896	965.217342	-38.995368	563.416482	1141.515741	-543.300451	775.035429	949.370375	-437.324371	186.128764	1287.478621	-226.797670	405.039121	1298.111886	-429.764386	401.601669	1222.274141	-33.782914	422.517124	1215.551800	-385.221900	416.143166	1164.673522	-75.323751	249.210906	1343.234466	-161.609135	240.060509	1352.991567	-253.459877	277.245943	1094.926130	-31.630388	329.405071	1188.850562	-449.469481	291.944423	964.898073	-23.515803	323.396838	881.790897	-33.435861	310.478521	797.324769	-54.476456	359.814140	886.649090	-38.980544	332.339130	695.534013	-81.341451	331.131756	680.545770	-209.079343	269.442986	556.429290	-65.870314	261.418676	468.897824	-81.477759	212.947499	397.361634	-83.357603	288.871697	462.617680	-108.881144	161.826465	268.387215	-94.822959	101.954682	281.671049	-145.345099	346.359686	129.026787	-133.562607	269.064007	132.897435	-67.068567	452.211366	1104.658669	-463.859868	526.950756	1069.227194	-455.871450	552.461741	1094.731856	-437.824506	590.017479	994.908664	-453.236278	674.261312	900.085639	-434.061271	679.494752	883.180734	-302.033319	333.085689	645.814283	-410.168160	275.122301	670.949874	-375.932045	331.016556	469.767727	-435.823716	579.861616	829.507180	-451.823475	530.261638	760.535780	-436.790422	450.798374	722.400086	-432.242140	552.566579	738.079536	-415.391760	393.693580	396.805090	-368.603585	-204.114712	954.611664	-260.986087	1.391731	82.653515	-460.913281	-15.204881	81.013027	-62.321734	
1502	7.5100	838.740012	1338.939974	-85.636549	792.224504	1352.873964	-433.962432	788.675074	1448.707470	-253.065080	782.700145	1263.765276	-267.989321	634.124157	1163.377056	51.693071	776.718811	965.078128	-38.951629	561.539056	1139.730472	-543.649087	775.583696	949.918844	-437.439353	188.132778	1286.910422	-227.546441	402.729915	1298.922303	-430.009287	403.239258	1222.355019	-34.703986	421.311160	1216.643511	-385.456069	416.880685	1164.792667	-76.433252	248.282389	1344.540619	-159.184659	239.152843	1353.623297	-251.900376	277.922544	1095.566656	-30.970978	327.740764	1189.323240	-449.513550	291.651484	966.584391	-23.042495	322.951799	883.148217	-33.188811	309.969928	798.890311	-54.058545	359.486173	887.906064	-38.263537	331.139598	696.435382	-80.067226	332.142114	681.539085	-207.551922	267.065234	557.710027	-65.347826	258.202251	471.109043	-80.762273	207.959814	399.804494	-83.342631	285.142584	463.802521	-108.418137	154.815409	272.108612	-95.007994	95.147092	287.033819	-145.469407	336.033824	128.228766	-133.892241	258.560568	134.031479	-67.205962	451.796520	1105.000916	-463.618137	527.168667	1070.479956	-455.368391	552.880317	1096.591904	-437.957221	592.084090	996.293053	-451.017834	677.271518	904.979289	-433.241708	683.157902	888.232150	-300.283351	340.566788	645.140298	-410.188886	280.946507	668.706836	-375.644396	341.691996	468.975028	-435.543775	585.113921	832.161080	-450.401872	537.003672	761.893936	-435.296779	458.326765	722.176783	-431.466981	559.518900	740.459180	-413.358185	405.785300	397.487215	-368.059302	-204.181607	954.597625	-261.152751	1.367027	82.643562	-460.957989	-15.228893	81.003488	-62.355084	
1503	7.5150	839.093419	1338.774737	-87.689817	791.827393	1350.682677	-435.530587	788.382425	1447.100463	-255.194723	782.013588	1262.250003	-269.264650	635.630680	1163.685409	52.052877	776.529759	964.899636	-39.131661	559.737790	1137.994908	-544.141325	776.112850	950.461429	-437.622771	187.627446	1287.515733	-225.809845	400.392334	1299.814054	-430.180756	404.705872	1222.525324	-35.891947	419.917749	1217.827282	-386.037382	417.682871	1164.962652	-77.562834	248.333615	1345.827195	-158.145703	238.113816	1354.781221	-251.008234	278.792354	1096.620513	-30.413908	325.795739	1189.753751	-449.986252	292.371255	968.442160	-23.061009	323.411501	884.744989	-32.918901	309.621265	800.667144	-54.364585	360.189870	889.299002	-37.653543	331.077896	697.968690	-78.708492	334.873715	682.570983	-205.896188	266.292095	559.440255	-64.762926	255.692582	473.024354	-80.432765	204.080778	402.749482	-83.294045	282.482972	465.404898	-108.176964	148.369217	276.245876	-95.454772	89.356647	292.926082	-146.092013	325.826124	127.663821	-134.186102	248.585583	136.019291	-67.626175	451.210703	1105.122046	-463.392982	527.230161	1071.429746	-454.918483	547.744228	1097.533200	-441.186592	593.081598	997.536073	-449.071828	680.926456	909.803314	-430.554982	686.108033	893.065491	-298.736274	347.344747	643.352324	-409.747549	286.405603	665.700288	-375.154574	352.174239	467.466781	-435.164313	589.842380	833.812295	-448.892745	543.020540	762.647977	-433.778843	465.102985	721.415050	-430.558903	565.658772	741.996368	-411.228870	417.666241	397.492465	-367.577537	-204.243324	954.724513	-261.461745	1.371027	82.642553	-460.959097	-15.249179	81.030378	-62.365655	
1504	7.5200	839.356013	1338.098811	-89.502213	791.580637	1348.109739	-436.961123	788.152143	1445.303902	-257.211709	781.214964	1260.522910	-270.389702	636.956379	1164.069960	52.702252	776.274880	964.593111	-39.461726	558.090028	1136.428166	-544.950397	776.483656	950.905248	-437.866527	187.067744	1288.599551	-224.568479	398.114893	1300.729639	-430.465397	406.154511	1222.877280	-37.163895	418.373442	1219.046663	-386.870261	418.381851	1165.202650	-78.757220	248.355166	1347.405808	-157.354225	237.119061	1356.050333	-250.379707	279.916013	1097.730741	-29.860032	323.588251	1190.529503	-450.716093	293.759785	970.294521	-23.259150	324.806317	886.673051	-32.630248	311.008516	802.627703	-54.195835	361.575648	891.183849	-36.848513	332.525328	699.843749	-77.024504	339.343219	683.514242	-204.048658	266.820615	561.492987	-63.995233	254.318852	475.336641	-80.163665	201.169558	406.216874	-83.145225	280.894946	467.274126	-107.848667	142.563787	281.214855	-95.913854	84.449732	299.805433	-146.675985	315.652725	127.582479	-134.427713	238.852186	138.039567	-67.873319	450.436967	1105.207153	-463.193874	525.942848	1072.470590	-455.298391	547.111033	1098.946673	-441.860628	593.082397	998.613325	-447.394077	682.980218	914.473856	-429.227607	688.142067	897.834248	-297.214000	353.499676	640.689249	-409.117914	291.286884	661.903319	-374.632384	362.261679	465.766408	-435.153065	593.936361	834.554664	-447.278469	548.037036	762.726799	-432.193331	470.736708	720.255168	-429.753001	570.589443	742.837445	-409.091881	429.489439	397.187715	-367.167081	-204.309592	954.583578	-261.403426	1.373415	82.647920	-460.975349	-15.270143	81.046587	-62.399152	
1505	7.5250	839.446886	1337.156020	-91.238205	791.441432	1345.129560	-438.360035	788.195406	1443.279946	-259.217973	780.312625	1258.496508	-271.445667	638.106765	1164.346594	53.462388	776.070881	964.273630	-39.806939	556.432399	1134.765809	-545.796086	776.600394	951.197735	-438.206052	186.712741	1289.783882	-223.270165	395.985740	1301.984091	-431.046575	407.291980	1223.482271	-38.504464	416.565274	1220.400394	-388.044388	419.000364	1165.587805	-79.720893	248.945453	1348.931388	-157.421691	235.910387	1357.375573	-249.468658	281.086491	1099.033524	-29.328063	321.215581	1191.510947	-451.621235	295.893828	972.287184	-23.525730	327.338615	888.894262	-32.811353	314.158756	804.728511	-53.572047	363.612040	893.131189	-36.332529	335.607753	702.106578	-75.314456	345.317321	684.600498	-202.022082	268.521592	563.934878	-63.031244	254.003133	478.081642	-79.642529	199.335774	410.270250	-82.964175	280.413689	469.514727	-107.359456	137.588706	287.007357	-96.314234	80.534040	307.381608	-147.259823	305.656523	127.802572	-134.794620	229.364284	140.863441	-68.175981	449.423484	1105.291979	-462.960597	524.621609	1073.554753	-455.744151	546.472590	1100.222262	-442.373104	592.158876	999.500410	-445.980400	684.061036	918.432048	-428.154771	689.134684	902.449978	-295.794686	358.790501	637.368224	-408.491376	295.630441	657.237464	-374.055199	372.352228	463.502522	-435.049776	596.938547	834.689660	-445.755354	551.909603	762.394046	-430.788612	475.111307	718.876584	-429.064702	574.392040	743.016177	-407.280937	441.055830	396.463911	-366.635196	-204.359285	954.620785	-261.543658	1.357246	82.660493	-460.985640	-15.198958	81.096517	-62.506673	
